<svg id="icon-24-sales_man" data-name="icon-24-sales man" xmlns="http://www.w3.org/2000/svg" width="24" height="24" viewBox="0 0 24 24">
  <rect id="Rectangle_7326" data-name="Rectangle 7326" width="24" height="24" fill="rgba(255,255,255,0)"/>
  <g id="Group_1322" data-name="Group 1322" transform="translate(-14 -3.4)">
    <path id="Path_981" data-name="Path 981" d="M116.931,146.654a2.826,2.826,0,0,0-.573-2.141,1.915,1.915,0,0,0-1.471-.714h-.009a1.908,1.908,0,0,0-1.462.7,2.859,2.859,0,0,0-.22,3.445,1.833,1.833,0,0,0,1.225.837,1.754,1.754,0,0,0,.37.035,1.809,1.809,0,0,0,1.066-.344A2.627,2.627,0,0,0,116.931,146.654Zm-1.577,1.11a.965.965,0,0,1-.758.159.982.982,0,0,1-.652-.449,2,2,0,0,1,.15-2.414,1.006,1.006,0,0,1,.784-.379h0a1.014,1.014,0,0,1,.793.4,1.934,1.934,0,0,1,.388,1.462A1.815,1.815,0,0,1,115.354,147.764Z" transform="translate(-88.201 -127.119)" fill="#1dbbbe" stroke="#1dbbbe" stroke-width="1"/>
    <path id="Path_982" data-name="Path 982" d="M195.624,195.073a1.859,1.859,0,0,0-2.308-.317,2.558,2.558,0,0,0-1.163,1.85,2.715,2.715,0,0,0,.608,2.211,1.9,1.9,0,0,0,1.436.687,1.843,1.843,0,0,0,1.057-.344,2.659,2.659,0,0,0,1.084-1.912A2.772,2.772,0,0,0,195.624,195.073Zm-.167,2.088a1.778,1.778,0,0,1-.714,1.286h0a.951.951,0,0,1-1.321-.2,1.827,1.827,0,0,1-.4-1.506,1.73,1.73,0,0,1,.758-1.233.922.922,0,0,1,.5-.141.971.971,0,0,1,.7.317A1.865,1.865,0,0,1,195.457,197.16Z" transform="translate(-160.604 -173.344)" fill="#1dbbbe" stroke="#1dbbbe" stroke-width="1"/>
    <path id="Path_983" data-name="Path 983" d="M146.465,143.777a.441.441,0,0,0-.608.132l-5.48,8.625a.441.441,0,0,0,.132.608.467.467,0,0,0,.238.07.435.435,0,0,0,.37-.2l5.48-8.625A.438.438,0,0,0,146.465,143.777Z" transform="translate(-113.356 -127.035)" fill="#1dbbbe" stroke="#1dbbbe" stroke-width="1"/>
    <path id="Path_984" data-name="Path 984" d="M38.364,9.536A2.568,2.568,0,1,0,35.8,6.964,2.566,2.566,0,0,0,38.364,9.536Zm0-4.255a1.691,1.691,0,1,1-1.691,1.691A1.692,1.692,0,0,1,38.364,5.281Z" transform="translate(-18.056)" fill="#1dbbbe" stroke="#1dbbbe" stroke-width="1"/>
    <path id="Path_985" data-name="Path 985" d="M23.409,77.272a.441.441,0,0,0-.467.405l-.4,5.77a.382.382,0,0,1-.009.044l-.37,5.6a.461.461,0,0,1-.458.432H18.916a.47.47,0,0,1-.467-.432l-.361-5.6a.423.423,0,0,0-.308-.388c-.529-.159-.529-.159-.573-.749l-.335-5.946v-.053c.643-.194,1.286-.4,1.938-.608.282.335.573.67.881,1.013l.291.326a.423.423,0,0,0,.326.15h0a.423.423,0,0,0,.326-.15l.352-.4c.282-.317.546-.625.81-.934h.035l4.317.978a.331.331,0,0,0,.185,0l3.885-.793a.447.447,0,0,0,.344-.52.44.44,0,0,0-.52-.344l-3.788.775-4.264-.978c-.018,0-.035-.009-.062-.009a.936.936,0,0,0-.758.264c-.273.326-.546.634-.837.969l-.018.026c-.3-.335-.581-.661-.863-.987a.735.735,0,0,0-.855-.247c-.661.211-1.321.423-1.982.625a.822.822,0,0,0-.617.828v.106l.326,5.867.009.1c.062.89.211,1.172.9,1.427l.352,5.312a1.347,1.347,0,0,0,1.339,1.26h2.793a1.347,1.347,0,0,0,1.339-1.26l.361-5.568a.079.079,0,0,1,.009-.044l.4-5.814A.441.441,0,0,0,23.409,77.272Z" transform="translate(0 -64.238)" fill="#1dbbbe" stroke="#1dbbbe" stroke-width="1"/>
  </g>
</svg>
