<svg id="icon-24-filter" xmlns="http://www.w3.org/2000/svg" width="24" height="18" viewBox="0 0 24 18">
  <rect id="Bounding_box" data-name="Bounding box" width="24" height="18" fill="rgba(255,255,255,0)"/>
  <path id="Icon_color" data-name="Icon color" d="M7.5,12a.716.716,0,0,1-.224-.035c-.17-.057-.276-.171-.276-.3V7.22a1.174,1.174,0,0,0-.59-.946L.59,2.393A1.176,1.176,0,0,1,0,1.447V.667C0,.3.449,0,1,0H17c.551,0,1,.3,1,.667v.78a1.176,1.176,0,0,1-.59.947L11.59,6.274A1.174,1.174,0,0,0,11,7.22V9.667a1.268,1.268,0,0,1-.8,1.067l-2.4,1.2A.677.677,0,0,1,7.5,12ZM2,1.333v.113L4.83,3.334H13.17L16,1.447V1.333Z" transform="translate(3 3)" fill="#1dbbbe"/>
</svg>
