<svg id="icon-24-money" xmlns="http://www.w3.org/2000/svg" width="32" height="32" viewBox="0 0 32 32">
  <g id="Ellipse_252" data-name="Ellipse 252" fill="rgba(255,255,255,0)" stroke="#0bf1d1" stroke-width="1">
    <circle cx="16" cy="16" r="16" stroke="none"/>
    <circle cx="16" cy="16" r="15.5" fill="none"/>
  </g>
  <g id="Layer_2" data-name="Layer 2" transform="translate(3.107 2.211)">
    <path id="Path_945" data-name="Path 945" d="M17.284,21.156a17.564,17.564,0,0,1-4.566-.685,14.672,14.672,0,0,0-5.913-.54,23.165,23.165,0,0,0-2.892.54A.718.718,0,0,1,3,19.733V7.557A.761.761,0,0,1,3.578,6.8a22.6,22.6,0,0,1,3.379-.578,15.981,15.981,0,0,1,6.088.6,14.725,14.725,0,0,0,5.639.556A21.445,21.445,0,0,0,21.842,6.8a.756.756,0,0,1,.944.761V19.733a.761.761,0,0,1-.578.761,23.31,23.31,0,0,1-3.09.571A16.111,16.111,0,0,1,17.284,21.156ZM8.5,18.31A17.564,17.564,0,0,1,13.068,19a14.672,14.672,0,0,0,5.875.54,20.007,20.007,0,0,0,2.283-.4V8.516a21.225,21.225,0,0,1-2.4.373A16.1,16.1,0,0,1,12.7,8.318a14.672,14.672,0,0,0-5.6-.563,19.717,19.717,0,0,0-2.58.4V18.812a21.309,21.309,0,0,1,2.146-.35A16.11,16.11,0,0,1,8.5,18.31Z" transform="translate(0 0)" fill="#0bf1d1"/>
    <path id="Path_946" data-name="Path 946" d="M4.042,11.383H3.7a.761.761,0,0,1-.7-.761V7.578a.761.761,0,0,1,.578-.761,22.6,22.6,0,0,1,3.379-.578.761.761,0,0,1,.814.578,3.508,3.508,0,0,1,.076.761,3.805,3.805,0,0,1-3.805,3.805Zm.479-3.2V9.808A2.283,2.283,0,0,0,6.31,7.845C5.755,7.928,5.161,8.035,4.522,8.179Z" transform="translate(0 -0.021)" fill="#0bf1d1"/>
    <path id="Path_947" data-name="Path 947" d="M26.5,11.559a3.805,3.805,0,0,1-3.737-3.044.835.835,0,0,1,.708-.944,21.445,21.445,0,0,0,3.09-.578.756.756,0,0,1,.944.761V10.8a.761.761,0,0,1-.632.761A1.522,1.522,0,0,1,26.5,11.559ZM24.57,8.971a2.283,2.283,0,0,0,1.415,1V8.713C25.5,8.811,25.026,8.9,24.57,8.971Z" transform="translate(-4.721 -0.197)" fill="#0bf1d1"/>
    <path id="Path_948" data-name="Path 948" d="M3.761,23.566A.761.761,0,0,1,3,22.805V19.761A.761.761,0,0,1,3.761,19,3.805,3.805,0,0,1,7.5,22.113a.752.752,0,0,1-.662.89,23.165,23.165,0,0,0-2.892.54.761.761,0,0,1-.183.023Zm.761-2.915v1.195c.411-.084.807-.16,1.195-.221a2.283,2.283,0,0,0-1.195-.974Z" transform="translate(0 -3.072)" fill="#0bf1d1"/>
    <path id="Path_949" data-name="Path 949" d="M23.814,24.122a.761.761,0,0,1-.761-.594A3.592,3.592,0,0,1,23,22.805,3.805,3.805,0,0,1,26.8,19a.761.761,0,0,1,.761.761v3.044a.761.761,0,0,1-.578.761,23.31,23.31,0,0,1-3.09.571Zm2.23-3.47a2.283,2.283,0,0,0-1.522,1.842c.479-.076.982-.167,1.522-.289Z" transform="translate(-4.78 -3.072)" fill="#0bf1d1"/>
    <path id="Path_950" data-name="Path 950" d="M16.186,18.088H13.522a.761.761,0,1,1,0-1.522h2.664a.381.381,0,0,0,0-.761H13.9A1.9,1.9,0,0,1,13.9,12h2.664a.761.761,0,0,1,0,1.522H13.9a.381.381,0,0,0,0,.761h2.283a1.9,1.9,0,0,1,0,3.805Z" transform="translate(-2.151 -1.399)" fill="#0bf1d1"/>
    <path id="Path_951" data-name="Path 951" d="M15.761,13.283A.761.761,0,0,1,15,12.522v-.761a.761.761,0,1,1,1.522,0v.761A.761.761,0,0,1,15.761,13.283Z" transform="translate(-2.868 -1.16)" fill="#0bf1d1"/>
    <path id="Path_952" data-name="Path 952" d="M15.761,20.283A.761.761,0,0,1,15,19.522v-.761a.761.761,0,0,1,1.522,0v.761A.761.761,0,0,1,15.761,20.283Z" transform="translate(-2.868 -2.833)" fill="#0bf1d1"/>
  </g>
</svg>
