<svg id="icon-26-electornic" xmlns="http://www.w3.org/2000/svg" width="26" height="26" viewBox="0 0 26 26">
  <circle id="Ellipse_218" data-name="Ellipse 218" cx="13" cy="13" r="13" fill="rgba(0,153,251,0.2)"/>
  <g id="Group_121" data-name="Group 121" transform="translate(12120.758 16206.758)">
    <rect id="Rectangle_1496" data-name="Rectangle 1496" width="18" height="18" transform="translate(-12116.758 -16202.758)" fill="rgba(255,255,255,0)"/>
    <g id="Group_120" data-name="Group 120" transform="translate(-12116.076 -16202.076)">
      <path id="Path_408" data-name="Path 408" d="M241.331,234.244h-6.75a.336.336,0,0,0-.336.336v6.75a.336.336,0,0,0,.336.336h6.75a.336.336,0,0,0,.336-.336v-6.75A.336.336,0,0,0,241.331,234.244Zm-.336,6.75h-6.078v-6.078h6.078Z" transform="translate(-229.638 -229.637)" fill="#0099fb"/>
      <path id="Path_409" data-name="Path 409" d="M44.74,35.969a.336.336,0,0,0,0-.672H42.075V33.719H44.74a.336.336,0,0,0,0-.672H42.075V31.776a.336.336,0,0,0-.336-.336H40.469V28.776a.336.336,0,1,0-.672,0v2.665H38.219V28.776a.336.336,0,0,0-.672,0v2.665H35.969V28.776a.336.336,0,1,0-.672,0v2.665H33.719V28.776a.336.336,0,1,0-.672,0v2.665H31.776a.336.336,0,0,0-.336.336v1.271H28.776a.336.336,0,1,0,0,.672h2.665V35.3H28.776a.336.336,0,1,0,0,.672h2.665v1.578H28.776a.336.336,0,0,0,0,.672h2.665V39.8H28.776a.336.336,0,0,0,0,.672h2.665v1.271a.336.336,0,0,0,.336.336h1.271V44.74a.336.336,0,0,0,.672,0V42.075H35.3V44.74a.336.336,0,0,0,.672,0V42.075h1.578V44.74a.336.336,0,0,0,.672,0V42.075H39.8V44.74a.336.336,0,1,0,.672,0V42.075h1.271a.336.336,0,0,0,.336-.336V40.469H44.74a.336.336,0,1,0,0-.672H42.075V38.219H44.74a.336.336,0,0,0,0-.672H42.075V35.969H44.74ZM41.4,41.4H32.112V32.112H41.4Z" transform="translate(-28.44 -28.44)" fill="#0099fb"/>
    </g>
  </g>
</svg>
