<svg xmlns="http://www.w3.org/2000/svg" width="20" height="20" viewBox="0 0 20 20">
  <g id="icon-24-_drop_down" data-name="icon-24- drop down" transform="translate(0 20) rotate(-90)">
    <rect id="Bounding_box" data-name="Bounding box" width="20" height="20" fill="rgba(255,255,255,0)"/>
    <path id="Icon_color" data-name="Icon color" d="M13.939.114a.385.385,0,0,1,.547,0L15.3.931a.37.37,0,0,1,0,.54L8.219,8.555a.578.578,0,0,1-.409.17h-.2a.578.578,0,0,1-.409-.17L.117,1.471a.37.37,0,0,1,0-.54L.934.114a.385.385,0,0,1,.547,0L7.71,6.343Z" transform="translate(2.29 5.979)"/>
  </g>
</svg>
