<svg id="time-countdown" xmlns="http://www.w3.org/2000/svg" width="24" height="24" viewBox="0 0 24 24">
  <path id="time-countdown-2" data-name="time-countdown" d="M0,13.5A10.435,10.435,0,0,1,10.5,3a10.266,10.266,0,0,1,6.3,2.1l1.349-1.352-1.2-1.2a1.449,1.449,0,0,1,0-2.1,1.452,1.452,0,0,1,2.1,0l4.5,4.5a1.45,1.45,0,0,1,0,2.1,1.453,1.453,0,0,1-2.1,0l-1.2-1.2L18.9,7.2A10.271,10.271,0,0,1,21,13.5,10.436,10.436,0,0,1,10.5,24,10.435,10.435,0,0,1,0,13.5Zm3,0A7.428,7.428,0,0,0,10.5,21,7.429,7.429,0,0,0,18,13.5,7.427,7.427,0,0,0,10.5,6,7.426,7.426,0,0,0,3,13.5ZM9,15V9h3v3h3v3Z" transform="translate(0 0)" fill="#b6be34"/>
</svg>
